<?xml version="1.0" encoding="utf-8"?>
<!-- Generator: Adobe Illustrator 27.6.1, SVG Export Plug-In . SVG Version: 6.00 Build 0)  -->
<svg version="1.1" id="レイヤー_1" xmlns="http://www.w3.org/2000/svg" xmlns:xlink="http://www.w3.org/1999/xlink" x="0px"
	 y="0px" viewBox="0 0 2126 2126" style="enable-background:new 0 0 2126 2126;" xml:space="preserve">
<style type="text/css">
	.st0{display:none;}
	.st1{display:inline;fill:#040000;}
	.st2{display:inline;fill:#FFFFFF;stroke:#000000;stroke-miterlimit:10;}
	.st3{display:inline;fill:#FFFFFF;}
	.st4{display:inline;}
	.st5{fill:#FFFFFF;}
</style>
<g>
	<defs>
		<polyline id="SVGID_1_" points="-405.6,2529.2 -405.6,-403.4 2527,-403.4 2527,2529.2 		"/>
	</defs>
	<clipPath id="SVGID_00000082326763115286909430000017802842193051034035_">
		<use xlink:href="#SVGID_1_"  style="overflow:visible;"/>
	</clipPath>
</g>
<g id="レイヤー_1_00000080926768528225204420000016326451191032094363_" class="st0">
	<path class="st1" d="M777.6,1246.7c10.4-130.4,45.6-275.4,45.6-283.8c0-32.4-47.5-53.9-47.5-122.3c0-37.2,17.4-65.4,52.9-65.4
		c35.5,0,56.6,23.7,66.8,31.2c10.2,7.5,35.4,23.5,69.3,24.2c19.8,0.5,59.7-11.6,97.8-11.6l0.3,531.6c0,0-78.3-6.6-158.9-35.8
		S777.6,1246.7,777.6,1246.7z"/>
	<path class="st1" d="M1345.5,1246.7c-10.4-130.4-45.6-275.4-45.6-283.8c0-32.4,47.5-53.9,47.5-122.3c0-37.2-17.4-65.4-52.9-65.4
		c-35.5,0-56.6,23.7-66.8,31.2c-10.2,7.5-35.4,23.5-69.3,24.2c-19.8,0.5-59.7-11.6-97.8-11.6v531.6c0,0,78-6.6,158.6-35.8
		S1345.5,1246.7,1345.5,1246.7z"/>
	<path class="st2" d="M895.4,806.3c15.1,9.5,35.4,23.5,69.3,24.2"/>
	<path class="st2" d="M905.6,1381.6"/>
</g>
<g id="レイヤー_2_00000058548597536089325700000006130129001884695697_" class="st0">
	<path class="st3" d="M1060.1,1175.5c-50.1,0-112.3-2.3-112.3-91.1c0-113.8,82.7-170,112.7-170 M1060.1,1175.5
		c50.1,0,113-2.2,113-90.9c0-113.8-82.8-170.1-112.7-170.1"/>
</g>
<g id="レイヤー_4" class="st0">
	<path class="st4" d="M1060.4,1081.9c0,0-59.9-18.3-59.9-61.9c0-34.6,30.7-32.1,59.9-32.1 M1060.4,1081.9c0,0,60.4-18.3,60.4-61.9
		c0-34.6-31-32.1-60.4-32.1"/>
</g>
<g>
	<path class="st5" d="M1064.4,1410.6c57.7,5.7,115.8-1.9,172.7-15.1c37.9-8.8,73-25.6,102-53.7c33.8-32.8,51.6-72.9,63.2-117.8
		c22.6-87.3,16.2-174-5.1-259.6c-12.1-48.6-32-95-57-139.2c-42.9-76.1-96.8-141.8-170.5-189.5c-30.8-19.9-63.8-35.3-102-37.3
		c-39.1-2-71.8,15.6-102.3,34.6c-65.4,40.8-116.6,97.4-157.9,161.8c-39.3,61.3-68.6,127.5-83.5,199.6
		c-19.4,94.4-19.6,186.7,16.9,278.1c27.2,68.1,79.6,105.2,146.2,122.5C944.4,1409.8,1003.6,1416.1,1064.4,1410.6z"/>
	<g>
		<g id="レイヤー_3">
			<g>
				<g>
					<g>
						<path d="M532.4,1766.9c-26.8-10.7-52.1-25.2-78.4-37.1c-41.9-18.9-81.5-41.8-121.3-64.6c-33.9-19.5-66.6-40.8-99-62.8
							c-5.3-3.6-7.9-7.7-6.8-15.2c8.7-59.6,13.3-119.6,20.8-179.3c6.5-51.8,14.2-103.5,21.3-155.2c6.6-48.5,15.7-96.9,23.7-145.2
							c10.1-61.5,23.5-122.2,34.3-183.5c8.1-45.7,19.8-90.8,29.4-136.2c7.9-37.5-2.5-72-25.6-100.6
							c-41.5-51.3-73.1-108.1-93.8-169.9C218.9,462.7,213,405.2,224.3,348c7.4-37.5,22.4-72.2,53-98c24.4-20.6,51.1-34.5,83.8-36.8
							c72.7-5,133.2,24,187.4,67.9c39.4,31.9,80.8,59.8,129.2,74.6c52.7,16.1,106.7,22.2,162.1,11.3c89.8-17.6,180-27.8,272.1-22.8
							c62.9,3.4,124.3,14.3,186.1,24.3c35.3,5.7,70.3,4.6,105.5-1.5c47.7-8.2,91.2-27.1,131.8-52.3c22.4-13.9,41.6-32.8,63.1-48.4
							c53.7-39,113.3-61.8,180.1-52c41.7,6.1,75.8,30.2,98,66.6c23.2,38,34.2,79.9,30.1,121.5c2.1,50.6-10.5,94.6-26.5,138.3
							c-19.7,53.8-49.4,101.2-84.4,146.3c-22.3,28.8-33.1,62.8-25.3,100.7c10.2,49.6,23.8,98.6,32.6,148.3
							c11.2,63,24.3,125.6,34.5,188.8c11.4,70.6,21.9,141.2,32.3,211.9c11.8,80.5,19,161.6,29.9,242.2c3.6,26.3-16.8,30.3-29.9,39.2
							c-46.4,31.4-94.6,60.2-144.3,85.9c-46,23.8-93.1,45.3-140.8,65.6c-45.7,19.4-92,36.9-139.1,51.9
							c-62.7,20-126.4,36.7-191.1,49.9c-48.3,9.8-97.1,15.3-145.3,24.8c-48.5,9.5-95.4-2.2-143.1-8.2
							c-57.9-7.4-114.4-20.7-171.1-33.2c-41.2-9.1-81.2-23.8-121.6-36 M1064.3,1385.5c54.1,5.4,108.6-1.8,162-14.2
							c35.5-8.3,68.5-24,95.7-50.4c31.7-30.8,48.4-68.4,59.3-110.5c21.2-81.9,15.2-163.2-4.8-243.4c-11.3-45.6-30-89.1-53.4-130.6
							c-40.2-71.4-90.8-133-159.9-177.7c-28.9-18.7-59.9-33.1-95.7-34.9c-36.7-1.9-67.3,14.6-95.9,32.5
							c-61.3,38.2-109.4,91.3-148.1,151.7c-36.8,57.5-64.4,119.5-78.3,187.2c-18.2,88.5-18.4,175.1,15.9,260.8
							c25.6,63.8,74.6,98.6,137.1,114.9C951.9,1384.7,1007.3,1390.5,1064.3,1385.5z"/>
						<path d="M1065.2,836.7c38.1-2.5,76.2,1.5,114.1,7.5c28.1,4.5,55.6,36.7,59.9,68.9c5.7,43.1-11.9,77.2-40.9,106.9
							c-34.2,35.1-75.6,60.1-117.9,83.9c-10.2,5.8-21.3,7.1-31.4,1.4c-43.3-24.3-86-49.8-120.8-85.8
							c-36.5-37.8-53.3-81.6-32.6-133.3c9.3-23.3,30.2-36.7,53.1-41.6C986.8,836.5,1025.8,834.2,1065.2,836.7z"/>
					</g>
				</g>
			</g>
		</g>
	</g>
</g>
</svg>
